<svg width="100%" height="100%" version="1.1" viewBox="0 0 73.66 73.66" xmlns="http://www.w3.org/2000/svg">
            <g transform="translate(-238.97 -182.21)">
              <g transform="translate(59.953 93.897)">
              <path d="m221.77 161.87c-0.24269-0.38378-0.27704-25.703-0.0357-26.083 0.11904-0.18738 1.3114-0.27594 4.2752-0.3175l4.1102-0.0576 0.15759-0.74083c0.22894-1.0763 1.4455-8.8207 1.4455-9.2019 0-0.27989-0.62966-0.32351-4.7096-0.32632-2.5903-2e-3 -4.8358-0.0833-4.9901-0.1811-0.22174-0.14059-0.2661-1.0825-0.21166-4.4947 0.0629-3.9404 0.1086-4.3906 0.52452-5.1635 0.52963-0.98414 1.1535-1.5938 2.1902-2.1401 0.59592-0.31404 1.3205-0.40294 3.7042-0.45448 1.6298-0.0352 3.1796-0.11112 3.4439-0.16862l0.48053-0.10455-0.1144-8.7613-1.5875-0.29167c-0.94936-0.17442-3.2041-0.30083-5.6092-0.31447-3.9552-0.0224-4.0515-0.0123-5.8259 0.61269-3.2754 1.1537-5.4739 3.0318-6.8791 5.8768-1.3226 2.6778-1.4177 3.2671-1.5251 9.4498-0.0587 3.3785-0.18393 5.7144-0.31497 5.8738-0.16141 0.19628-1.3593 0.26458-4.6404 0.26458h-4.4228l0.0567 5.1329 0.0567 5.1329 9.1017 0.21167 0.055 10.147c0.0303 5.581-0.0174 16.039-0.10583 16.126z" fill="#fff" stroke-width=".21167"/>
              </g>
            </g>
          </svg>