<svg width="100%" height="100%" version="1.1" viewBox="0 0 73.66 73.66">
            <g transform="translate(-194.57 -162.79)">
              <g transform="translate(59.953 93.897)">
              <path d="m179.49 128.8c5.871-0.31578 8.3752-1.1804 11.024-3.8067 1.4986-1.4856 2.6956-3.5807 3.2683-5.7206 0.58375-2.1813 0.79089-7.1582 0.66951-16.087-0.13188-9.7002-0.24398-10.632-1.6258-13.513-1.4082-2.9356-3.7774-4.995-7.0017-6.0858-2.4337-0.82338-5.3023-0.97855-16.192-0.87587-8.1341 0.0767-10.195 0.15521-11.376 0.43332-4.714 1.11-8.1622 4.4406-9.3523 9.0332-0.49746 1.9198-0.7325 6.3552-0.72912 13.759 5e-3 10.304 0.3084 13.093 1.7491 16.062 0.78031 1.608 2.7492 3.8174 4.2714 4.7933 1.3888 0.89027 3.8232 1.755 5.5782 1.9815 1.9441 0.25085 15.209 0.26817 19.716 0.0257zm-17.674-4.2332c-1.9222-0.14673-3.9276-0.62541-5.0485-1.2051-1.0126-0.52366-2.4737-2.0024-2.9951-3.0313-1.2695-2.5053-1.2697-2.5076-1.2697-14.499 0-10.029 0.0344-11.128 0.38749-12.373 0.94153-3.3202 2.5365-4.9837 5.7508-5.9978 1.4498-0.45741 1.7204-0.46745 12.594-0.46745 11.889 0 12.336 0.03361 14.438 1.0869 2.0286 1.0163 3.1897 2.4546 4.0414 5.0061 0.41446 1.2417 0.44372 1.8824 0.52237 11.438 0.11331 13.767-0.0594 14.894-2.6845 17.519-1.7261 1.7261-3.0492 2.2318-6.6099 2.5264-2.6977 0.22315-16.191 0.22079-19.127-3e-3zm12.458-7.323c4.1126-1.061 7.5988-4.607 8.6181-8.7661 0.15692-0.64029 0.28286-1.9262 0.27986-2.8575-0.0204-6.3512-5.451-11.74-11.831-11.74-5.171 0-10.128 3.8124-11.423 8.7856-0.42579 1.6347-0.41885 4.7778 0.0138 6.2499 1.1779 4.0079 4.4752 7.2814 8.3985 8.3381 1.4989 0.40371 4.3594 0.399 5.9438-0.01zm-4.4451-3.8939c-3.3143-0.70241-5.8648-3.5791-6.1459-6.932-0.19052-2.2726 0.43431-4.1054 1.9622-5.7557 0.72306-0.78099 1.6387-1.4974 2.3776-1.8602 1.0717-0.5263 1.4308-0.59015 3.3184-0.59015 1.8931 0 2.245 0.06302 3.3315 0.59656 5.2172 2.5619 5.9192 9.5989 1.3075 13.107-1.7097 1.3004-4.1262 1.8641-6.1513 1.4349zm15.398-17.632c0.46242-0.31065 0.83024-0.80187 1.0302-1.3758 0.27352-0.78517 0.27352-1.0002 0-1.7854-0.44745-1.2844-1.4618-1.9276-2.8378-1.7993-2.6127 0.24359-3.3929 3.4804-1.1958 4.961 0.9304 0.627 2.0696 0.6268 3.0035-6.35e-4z" fill="#fff" stroke-width=".21167"/>
              </g>
            </g>
          </svg>