<svg width="100%" height="100%" version="1.1" viewBox="0 0 73.66 73.66">
            <g transform="translate(-143.13 -148)">
              <g transform="translate(59.953 93.897)">
                <g transform="matrix(.8381 0 0 .8381 50.483 -8.5493)" fill="#fff">
                  <path d="m65.668 144.25c-0.0776-0.0776-0.14111-2.1847-0.14111-4.6824v-4.5413l-1.943-1.8263c-1.0686-1.0045-2.512-2.5883-3.2075-3.5196-1.6101-2.1561-3.3446-5.7516-4.0845-8.4667-0.52215-1.9162-0.57786-2.4676-0.58804-5.8208-0.0096-3.1582 0.05842-3.98 0.46144-5.5753 2.2114-8.7536 8.5617-15.469 17.435-18.438 3.0816-1.031 5.679-1.4447 9.0712-1.4447 12.792 0 23.516 8.0437 26.507 19.883 0.40302 1.5953 0.47104 2.4171 0.46144 5.5753-0.0102 3.3533-0.0659 3.9047-0.58804 5.8208-1.9422 7.1273-6.9607 13.113-13.827 16.491-3.7578 1.849-7.0712 2.6603-11.495 2.8146-2.9266 0.10202-4.1387 6e-3 -7.533-0.59415l-1.5005-0.26549-4.2533 2.3656c-2.3393 1.3011-4.339 2.3656-4.4438 2.3656-0.10476 0-0.25398-0.0635-0.33159-0.14111zm26-26.884c7.1959-7.6266 7.8123-8.3072 7.6608-8.4586-0.0655-0.0655-2.8053 1.367-6.0885 3.1832s-6.1277 3.3023-6.3212 3.3023-1.807-1.524-3.5857-3.3867c-1.7787-1.8627-3.3591-3.3867-3.512-3.3867-0.29478 0-13.871 14.334-13.871 14.645 0 0.23556 0.3138 0.0736 6.9746-3.5998l5.5988-3.0877 3.3861 3.5354c1.8623 1.9445 3.4863 3.5353 3.6087 3.5352 0.12246-1.5e-4 2.8897-2.8269 6.1493-6.2817z" fill="#fff" stroke-width=".21167"/>
                </g>
              </g>
            </g>
          </svg>