<svg width="100%" height="100%" version="1.1" viewBox="0 0 73.66 73.66" xmlns="http://www.w3.org/2000/svg" xmlns:cc="http://creativecommons.org/ns#" xmlns:dc="http://purl.org/dc/elements/1.1/" xmlns:rdf="http://www.w3.org/1999/02/22-rdf-syntax-ns#">
            <g transform="translate(-409.33 -174.96)">
              <g transform="translate(59.953 93.897)">
              <g transform="matrix(.93876 0 0 .93876 22.135 6.1689)" fill="#fff">
                <path d="m373.02 135.65c-3.7797-0.21638-5.9449-0.55262-7.1222-1.106-1.1423-0.53695-2.384-1.7365-2.954-2.8537-2.0207-3.961-2.0207-22.796 0-26.757 0.99837-1.957 2.841-3.1434 5.4851-3.5317 6.1347-0.90092 30.263-0.9009 36.399 2e-5 2.644 0.38825 4.4867 1.5747 5.485 3.5317 0.95033 1.8628 1.4988 6.7895 1.5011 13.485 3e-3 9.111-0.83335 13.413-2.9468 15.155-1.7036 1.4043-3.244 1.7544-9.2211 2.0959-4.1816 0.23891-22.351 0.22644-26.626-0.0183zm15.196-13.6c3.6038-2.0803 5.9267-3.5455 5.9267-3.7385 0-0.34594-11.59-7.1552-12.224-7.1815-0.34582-0.0144-0.37042 0.46256-0.37042 7.1813 0 6.7199 0.0245 7.1954 0.37042 7.1782 0.20373-0.0101 3.0374-1.5579 6.2971-3.4396z" fill="#fff" stroke-width=".21167"/>
              </g>
              </g>
            </g>
          </svg>