<svg width="100%" height="100%" version="1.1" viewBox="0 0 73.66 73.66" xmlns="http://www.w3.org/2000/svg">
             <g transform="translate(-73.507 -105.1)">
              <g transform="translate(59.953 93.897)">
              <path d="m70.07 61.415c0-0.37349-11.79-12.328-12.158-12.328-0.10809 0-1.0123 0.79663-2.0095 1.7703-2.4689 2.4108-3.2008 2.7723-5.6229 2.7769-2.5104 0.0048-3.4419-0.44388-5.783-2.7855-0.96871-0.96895-1.873-1.7617-2.0095-1.7617-0.40294 0-12.21 11.921-12.21 12.328 0 0.352 1.0602 0.37181 19.897 0.37181 18.836 0 19.897-0.01981 19.897-0.37181zm-34.133-6.8764c3.2895-3.288 5.981-6.0859 5.981-6.2177 0-0.37038-12.082-12.81-12.354-12.72-0.17449 0.05815-0.25515 3.4022-0.29508 12.233-0.03022 6.6843-0.0094 12.272 0.04627 12.418 0.05567 0.14552 0.22266 0.26458 0.37108 0.26458 0.14842 0 2.9613-2.6902 6.2508-5.9782zm35.14-6.5807c0.05158-11.729 0.03398-12.417-0.3175-12.412-0.33565 0.0051-11.755 11.632-12.198 12.42-0.14255 0.25351 1.1922 1.704 5.9256 6.4396 3.3603 3.3618 6.2053 6.0805 6.3223 6.0415 0.13842-0.04613 0.23176-4.407 0.2673-12.489zm-18.22 4.1955c0.89641-0.40008 2.1683-1.5806 6.9896-6.4874 9.9825-10.16 10.531-10.75 10.246-11.035-0.19381-0.19383-4.8652-0.26869-19.559-0.31341-10.617-0.03231-19.518-0.0067-19.78 0.05695-0.26194 0.06364-0.47625 0.26519-0.47625 0.44791 0 0.4682 15.76 16.508 16.844 17.143 1.7303 1.0141 3.7376 1.0799 5.7357 0.1881z" fill="#fff" stroke-width=".21167"/>
              </g>
            </g>
          </svg>