<svg width="100%" height="100%" version="1.1" viewBox="0 0 73.66 73.66" xmlns="http://www.w3.org/2000/svg" >
  <g transform="translate(-75.581 -106.76)">
    <g transform="translate(59.953 93.897)">
    <path d="m68.439 68.67c1.4292-0.66789 2.5261-1.8458 3.3997-3.651 0.77358-1.5985 0.89132-2.3316 0.46321-2.8843-0.28922-0.37336-6.3226-4.3545-8.2192-5.4235-0.6497-0.36619-1.4382-0.66581-1.7523-0.66581-0.34488 0-1.2434 0.46047-2.2688 1.1628-0.93382 0.63953-1.937 1.2228-2.2293 1.2962-1.0442 0.26208-2.1671-0.07055-3.5362-1.0476-2.802-1.9994-9.2282-8.6361-10.221-10.555-0.93126-1.8009-0.80094-2.5427 0.86782-4.9402 0.70472-1.0125 1.1649-1.8973 1.1649-2.2399 0-0.73745-0.77806-2.1833-3.0616-5.6892-2.6474-4.0646-2.9716-4.445-3.7884-4.445-1.013 0-3.5933 1.3305-4.6718 2.409-1.3883 1.3883-1.6598 2.1746-1.5438 4.4702 0.28672 5.6725 4.7578 13.236 12.201 20.639 4.3654 4.3419 8.0064 7.099 12.261 9.2843 5.1048 2.6221 8.6304 3.3575 10.935 2.2807z" fill="#fff" stroke-width=".21167"/>
    </g>
  </g>
</svg>